<?xml version="1.0" standalone="no"?>
<!DOCTYPE svg PUBLIC "-//W3C//DTD SVG 20010904//EN"
 "http://www.w3.org/TR/2001/REC-SVG-20010904/DTD/svg10.dtd">
<svg version="1.0" xmlns="http://www.w3.org/2000/svg"
 width="736.000000pt" height="975.000000pt" viewBox="0 0 736.000000 975.000000"
 preserveAspectRatio="xMidYMid meet">

<g transform="translate(0.000000,975.000000) scale(0.100000,-0.100000)"
fill="#000000" stroke="none">
<path d="M2795 9720 c-21 -16 -41 -30 -46 -30 -5 0 -24 -14 -43 -31 -28 -24
-36 -40 -41 -77 -3 -26 -12 -63 -20 -82 -76 -200 -112 -406 -84 -483 10 -27 9
-47 -4 -108 -15 -69 -23 -118 -33 -193 -4 -29 -4 -72 0 -153 1 -18 7 -38 14
-45 7 -7 12 -18 12 -25 0 -18 29 -73 38 -73 4 0 17 25 30 54 27 61 56 93 91
98 20 2 26 -3 37 -32 7 -19 13 -45 13 -56 1 -28 37 -73 68 -85 17 -6 23 -14
19 -25 -3 -8 1 -17 9 -20 8 -4 15 -12 15 -19 0 -18 62 -28 96 -15 15 6 40 8
56 5 22 -5 28 -3 28 10 0 12 6 16 20 12 11 -3 20 -1 20 4 0 17 39 9 50 -10 7
-14 5 -31 -7 -63 -14 -39 -14 -48 -2 -73 8 -16 25 -35 39 -42 30 -15 96 -17
105 -3 7 11 45 13 69 4 17 -7 22 -44 6 -44 -5 0 -10 -6 -10 -13 0 -8 -10 -18
-23 -24 -12 -6 -49 -33 -83 -61 -39 -33 -77 -55 -107 -63 -26 -6 -44 -16 -41
-21 4 -5 1 -21 -7 -34 -16 -31 -6 -40 26 -26 32 15 120 16 146 1 15 -7 24 -7
35 1 15 13 44 7 44 -9 0 -6 -11 -13 -25 -17 -21 -5 -25 -12 -25 -40 0 -27 4
-34 20 -34 11 0 20 -4 20 -8 0 -12 -22 -32 -35 -32 -5 0 -3 5 5 10 9 6 10 10
3 10 -6 0 -14 -4 -17 -8 -12 -19 14 -31 81 -37 l71 -7 7 44 c4 23 11 51 16 60
7 12 4 18 -10 23 -20 6 -36 33 -26 44 3 3 43 6 88 7 45 1 94 3 110 3 33 1 36
26 5 42 -13 6 -45 33 -73 60 -27 26 -71 58 -97 69 -27 12 -48 25 -48 30 0 5
-7 15 -15 24 -14 13 -12 18 14 45 35 36 46 38 60 12 13 -23 61 -35 61 -15 0 8
5 14 10 14 20 0 9 36 -21 68 -32 34 -48 39 -67 20 -9 -9 -19 -5 -42 17 -17 16
-30 23 -30 16 0 -11 -3 -11 -15 -1 -12 10 -15 10 -15 -4 0 -20 -26 -21 -34 -1
-4 13 -10 12 -40 -6 -19 -11 -37 -26 -40 -34 -8 -22 -23 -18 -29 7 -4 12 4 43
18 73 14 29 25 55 25 58 0 4 11 31 25 61 14 30 25 57 25 60 0 12 45 102 57
114 7 7 13 17 13 22 0 4 13 -4 28 -18 16 -15 49 -70 74 -123 28 -60 59 -109
81 -129 37 -33 158 -83 181 -74 7 3 25 6 39 7 24 2 77 39 77 54 0 5 20 21 45
36 41 26 75 73 75 103 0 30 22 23 36 -12 30 -72 36 -27 39 297 2 173 5 330 5
349 2 44 -9 128 -20 155 -56 132 -67 150 -135 228 -14 15 -25 34 -25 42 0 7
-10 21 -21 29 -12 8 -30 27 -39 41 -9 14 -38 48 -64 75 l-48 50 -428 0 -427 0
-38 -30z m635 -343 c111 -3 134 -7 201 -34 67 -26 109 -54 158 -104 29 -29 51
-59 51 -69 0 -5 16 -40 35 -77 38 -74 70 -185 61 -210 -4 -10 -13 -13 -29 -9
-107 31 -182 36 -581 39 -368 2 -419 0 -491 -16 -122 -28 -141 -36 -153 -60
-10 -20 -11 -19 -11 13 -2 145 70 321 173 421 80 78 124 98 238 104 50 3 94 7
96 10 2 2 32 2 66 0 33 -3 117 -7 186 -8z m371 -633 c27 -9 49 -21 49 -27 0
-5 18 -28 40 -49 33 -33 40 -46 40 -78 0 -49 -36 -147 -58 -159 -32 -16 -102
-23 -116 -11 -10 7 -16 8 -20 1 -5 -7 -16 -7 -34 0 -15 6 -28 10 -29 10 -25
-7 -63 37 -63 72 0 6 -10 30 -21 55 l-21 43 23 47 c23 47 70 95 97 98 8 2 16
5 20 8 9 10 41 7 93 -10z m-541 -106 c-1 -21 -21 -58 -32 -58 -2 0 -3 10 -3
23 3 48 35 81 35 35z"/>
<path d="M6547 9743 c-3 -5 -8 -55 -11 -113 -3 -58 -8 -127 -11 -155 -3 -27
-12 -140 -20 -250 -8 -110 -23 -306 -34 -435 -11 -129 -27 -325 -36 -435 -8
-110 -20 -245 -25 -300 -5 -55 -16 -185 -25 -290 -9 -104 -23 -264 -31 -355
-9 -91 -22 -241 -29 -335 -8 -93 -21 -242 -29 -330 -9 -88 -20 -221 -26 -295
-6 -74 -15 -169 -20 -210 -5 -41 -14 -138 -20 -215 -11 -143 -22 -228 -42
-325 -13 -66 -25 -85 -20 -32 3 36 3 36 -10 12 -7 -14 -22 -26 -32 -28 -35 -7
-67 -54 -62 -89 3 -18 1 -33 -5 -33 -5 0 -9 8 -9 17 0 37 -26 -21 -29 -62 -1
-22 -8 -58 -16 -80 l-14 -40 -1 43 c0 23 -4 42 -8 42 -5 0 -7 -34 -4 -75 2
-41 2 -75 -1 -75 -13 0 -50 96 -92 245 -26 88 -65 205 -87 260 -22 55 -48 138
-58 185 -36 174 -115 367 -160 395 -6 4 -21 23 -34 43 -13 21 -54 69 -91 107
-36 39 -77 87 -91 107 -30 47 -159 154 -228 190 -62 32 -221 103 -256 113 -14
4 -49 18 -78 31 -29 13 -55 24 -58 24 -3 0 -85 37 -182 83 -97 46 -230 105
-295 132 -129 53 -142 64 -175 155 -67 187 -92 235 -127 244 -25 7 -29 2 -17
-21 26 -49 19 -312 -9 -329 -5 -3 -9 -15 -9 -27 0 -12 -7 -35 -15 -51 -8 -15
-15 -37 -15 -47 0 -11 -5 -16 -13 -13 -8 3 -13 -5 -15 -23 -2 -32 -27 -89 -43
-98 -5 -4 -17 -1 -25 6 -12 10 -12 14 -2 21 9 6 5 7 -9 3 -31 -9 -29 9 2 23
17 8 25 20 25 36 0 13 7 27 16 30 9 3 14 13 10 21 -3 8 1 30 9 49 8 20 15 46
15 60 0 13 11 37 24 53 52 62 68 129 47 203 -8 29 -16 19 -25 -33 -9 -49 -95
-192 -141 -232 -6 -5 -17 -25 -24 -42 -9 -21 -20 -33 -32 -33 -11 0 -19 -5
-19 -11 0 -6 -7 -17 -15 -25 -8 -8 -18 -22 -23 -30 -10 -18 -43 -8 -36 11 10
25 -23 24 -37 -1 -10 -19 -18 -24 -34 -19 -11 3 -28 7 -38 8 -9 1 -17 5 -17
10 0 4 0 14 0 23 0 8 4 13 9 10 5 -3 21 6 35 19 15 14 36 25 47 25 10 0 19 7
19 15 0 16 15 32 80 85 90 72 170 162 170 191 0 9 7 19 15 23 23 8 18 36 -6
36 -12 0 -23 -8 -26 -20 -3 -11 -10 -20 -16 -20 -6 0 -18 -6 -26 -13 -9 -8
-45 -24 -81 -37 -36 -13 -70 -27 -77 -32 -14 -11 -36 -1 -28 12 9 14 -33 22
-75 15 -23 -4 -47 -2 -60 5 -12 6 -31 13 -42 15 -12 3 -24 9 -27 14 -10 16
-63 32 -80 25 -9 -4 -36 -11 -61 -15 -100 -18 -111 -22 -131 -48 -28 -35 -65
-45 -88 -23 -30 30 -123 27 -135 -4 -8 -21 15 -74 31 -74 7 0 13 -7 13 -14 0
-8 12 -21 28 -29 15 -7 26 -19 24 -26 -1 -7 7 -15 18 -18 11 -3 20 -14 20 -24
0 -11 5 -19 10 -19 19 0 10 -28 -10 -33 -11 -3 -20 -1 -20 5 0 5 -6 8 -12 5
-11 -4 -69 21 -128 54 -53 30 -114 58 -117 55 -2 -2 57 -65 131 -140 75 -74
136 -139 136 -144 0 -6 10 -13 23 -16 22 -6 22 -6 2 -21 -42 -32 -69 -61 -82
-93 -18 -43 -29 -34 -76 56 -19 37 -51 96 -71 132 -95 168 -119 228 -127 313
-4 45 -8 87 -8 94 -1 6 -13 25 -27 42 -14 17 -22 31 -17 31 9 0 9 87 0 97 -3
3 -2 15 3 27 8 22 0 49 -14 47 -3 -1 -9 0 -13 0 -5 1 -15 1 -24 0 -9 -1 -19 6
-23 16 -20 58 -23 72 -15 84 6 10 9 5 10 -16 l1 -30 13 30 14 30 1 -47 c0 -36
4 -48 15 -48 28 0 12 88 -19 100 -17 7 -18 9 -3 9 9 1 17 8 17 17 0 11 -6 14
-20 9 -14 -5 -20 -2 -20 10 0 13 -4 14 -20 5 -16 -9 -20 -7 -24 12 -14 68 -19
84 -28 95 -13 17 -28 7 -28 -18 0 -11 -5 -17 -10 -14 -5 3 -10 18 -10 33 l0
26 -22 -21 c-21 -22 -21 -23 -4 -62 19 -40 15 -61 -9 -61 -8 0 -15 14 -18 33
-4 30 -4 29 -5 -7 -2 -31 -5 -37 -14 -28 -6 6 -11 34 -9 62 2 50 2 50 -29 50
-16 0 -30 -4 -30 -10 0 -5 -9 -10 -20 -10 -11 0 -20 -4 -20 -10 0 -20 -36 -29
-63 -15 -14 7 -35 11 -46 8 -13 -3 -24 2 -33 16 -7 12 -23 21 -38 21 -23 0
-27 -6 -38 -57 -21 -93 -23 -98 -33 -82 -5 8 -7 26 -4 40 4 16 0 30 -9 38 -13
11 -16 8 -22 -15 -5 -18 -3 -29 4 -32 7 -2 12 -9 12 -15 0 -5 -3 -7 -7 -4 -10
11 -33 -13 -33 -35 0 -10 7 -21 15 -24 8 -4 16 -18 16 -33 1 -20 2 -22 6 -6 3
11 12 28 20 37 12 14 19 15 34 5 10 -6 19 -15 19 -20 0 -4 -5 -5 -11 -1 -15 9
-29 -14 -29 -48 0 -15 -5 -30 -10 -33 -5 -3 -10 -19 -10 -36 0 -29 -15 -40
-23 -16 -2 8 -17 3 -46 -17 -32 -22 -45 -26 -53 -18 -15 15 -58 16 -58 2 0 -5
-11 -10 -25 -10 -14 0 -25 -4 -25 -10 0 -5 -7 -10 -15 -10 -8 0 -15 -4 -15
-10 0 -5 14 -10 31 -10 23 0 30 -4 26 -15 -8 -20 9 -28 34 -15 19 11 20 13 4
30 -15 17 -14 18 25 22 22 2 46 0 53 -4 9 -6 8 -8 -3 -8 -11 -1 -10 -4 5 -16
11 -8 25 -12 33 -9 7 2 10 0 7 -5 -3 -6 -16 -10 -29 -10 -12 0 -31 -7 -42 -15
-18 -13 -15 -14 31 -15 36 0 46 -3 35 -10 -8 -5 -27 -10 -41 -10 -28 0 -42
-20 -33 -45 4 -10 0 -15 -13 -15 -10 0 -25 -6 -32 -12 -11 -11 -13 -10 -8 4 4
12 2 15 -9 11 -8 -3 -14 1 -14 8 0 9 -5 7 -11 -5 -9 -14 -8 -20 1 -26 10 -6 6
-15 -16 -34 -28 -25 -28 -25 -6 -26 22 0 45 -35 35 -52 -8 -14 -33 -8 -33 7 0
9 -7 18 -15 21 -8 4 -15 17 -15 31 0 23 -3 25 -33 18 -17 -3 -44 -8 -60 -9
-41 -4 -45 -16 -6 -16 31 0 38 -5 58 -40 23 -41 20 -62 -14 -90 -23 -19 -29
-6 -11 22 14 21 14 27 1 44 -8 11 -15 14 -15 7 0 -7 -9 -13 -20 -13 -24 0 -25
-9 -5 -36 23 -30 19 -46 -13 -42 -19 2 -28 9 -30 26 -2 12 -7 22 -11 22 -14 0
-51 -46 -51 -63 0 -22 -18 -31 -35 -17 -13 10 -12 14 0 27 8 8 15 19 15 24 0
6 -7 3 -17 -6 -15 -15 -17 -15 -25 -1 -5 9 -6 25 -3 36 4 11 2 20 -4 20 -6 0
-11 -4 -11 -10 0 -16 -27 -12 -34 5 -3 8 2 21 10 30 10 9 13 23 9 36 -5 15 -9
18 -15 9 -5 -9 -9 -9 -14 -1 -4 6 -16 11 -28 11 -16 0 -18 3 -9 14 6 7 9 28 7
47 -3 19 -5 47 -5 62 -1 24 -4 27 -22 22 -19 -6 -20 -3 -19 42 3 84 1 96 -14
90 -17 -7 -26 13 -26 53 0 16 -5 32 -10 35 -6 4 -10 14 -9 23 1 10 -1 24 -4
32 -4 8 -9 35 -11 60 -9 85 -28 153 -40 139 -1 -2 0 -56 4 -119 10 -151 3
-351 -13 -366 -12 -12 -8 -24 8 -24 8 0 15 -9 15 -20 0 -11 -5 -20 -11 -20
-12 0 -2 -88 12 -106 4 -5 8 -50 9 -100 0 -49 2 -107 5 -129 5 -41 17 -329 16
-377 0 -15 4 -30 8 -32 5 -3 5 -25 1 -48 -7 -34 -18 -51 -57 -85 -26 -23 -57
-51 -69 -63 -12 -11 -29 -20 -38 -20 -9 0 -16 -7 -16 -15 0 -8 -9 -15 -20 -15
-21 0 -41 -35 -33 -57 8 -20 -27 -113 -47 -123 -13 -7 -20 -6 -23 3 -2 6 -8 9
-12 4 -5 -4 -4 -12 2 -18 12 -12 6 -49 -8 -49 -10 0 -24 67 -20 94 2 14 -2 17
-14 12 -12 -4 -16 -2 -12 7 3 8 2 20 -3 26 -11 18 -47 5 -53 -19 -5 -20 -27
-28 -27 -10 0 6 -6 10 -14 10 -14 0 -30 -66 -22 -92 3 -7 7 -58 10 -113 3 -55
12 -156 20 -225 30 -251 30 -395 0 -395 -5 0 -12 32 -15 70 -4 39 -13 126 -22
195 -8 69 -21 177 -27 240 -14 126 -33 188 -23 75 3 -38 20 -204 38 -368 l33
-298 -35 -172 c-33 -163 -47 -268 -60 -435 -6 -79 7 -163 38 -255 17 -51 18
-68 9 -140 -33 -267 24 -811 95 -897 7 -8 16 -26 20 -40 14 -45 56 -124 97
-178 31 -42 40 -64 44 -105 2 -29 11 -135 19 -237 9 -102 22 -264 31 -360 8
-96 19 -238 24 -315 5 -77 14 -185 19 -240 19 -186 40 -449 51 -635 6 -102 15
-216 20 -255 5 -38 12 -119 15 -180 3 -60 10 -148 15 -195 5 -47 12 -116 15
-155 2 -38 9 -106 15 -150 6 -44 11 -107 11 -140 1 -33 5 -65 10 -71 4 -5 8
-30 8 -55 0 -24 3 -77 6 -117 6 -62 10 -72 27 -72 21 0 21 -7 -3 220 -5 52
-12 120 -14 150 -2 30 -7 78 -10 105 -3 28 -12 127 -20 220 -8 94 -24 267 -34
385 -22 230 -46 510 -61 705 -6 66 -17 199 -25 295 -31 361 -45 517 -49 575
-3 33 -9 105 -15 160 -5 55 -12 136 -16 180 -3 44 -8 101 -11 128 -7 48 3 60
26 32 11 -14 21 -93 40 -340 5 -66 20 -255 34 -420 27 -333 52 -642 66 -840 6
-71 16 -206 24 -300 9 -93 20 -228 26 -300 5 -71 17 -205 26 -297 8 -91 17
-195 19 -230 3 -35 9 -112 15 -173 5 -60 13 -143 16 -183 l6 -72 91 0 92 0 -7
93 c-8 103 -33 397 -47 557 -6 58 -15 175 -21 260 -6 85 -17 234 -25 330 -8
96 -22 265 -30 375 -8 110 -17 223 -20 250 -3 28 -10 118 -16 200 -6 83 -13
164 -14 180 -2 17 -6 80 -10 140 -4 61 -13 174 -21 252 -17 169 -17 173 -4
173 29 0 39 -51 55 -270 9 -124 25 -346 36 -495 11 -148 24 -337 29 -420 5
-82 14 -206 19 -275 13 -159 30 -375 36 -465 14 -207 36 -493 39 -510 3 -11 8
-76 11 -145 4 -69 9 -136 10 -150 2 -14 4 -37 4 -52 l1 -28 1649 0 c1486 0
1649 2 1655 16 24 63 37 158 50 359 2 37 11 62 33 92 54 75 90 207 117 423 69
560 75 653 50 783 -5 22 0 33 27 55 98 82 149 146 149 189 0 16 9 78 20 138
23 127 26 292 6 380 -16 72 -28 145 -32 200 -2 22 -6 65 -9 95 l-7 55 107 140
c59 77 111 142 116 143 17 7 9 -24 -20 -79 -18 -34 -28 -67 -27 -89 2 -44 34
-110 55 -117 9 -2 24 -9 33 -14 24 -13 95 -11 121 2 12 6 32 20 44 31 12 11
31 18 45 16 l23 -3 -3 -135 c-2 -74 -5 -173 -8 -220 -3 -47 -6 -115 -8 -152
-2 -36 -7 -97 -10 -135 -6 -66 -14 -202 -21 -353 -2 -41 -6 -109 -10 -150 -7
-84 -13 -194 -20 -350 -2 -58 -9 -129 -15 -159 -5 -29 -10 -106 -10 -170 0
-64 -4 -168 -9 -231 -6 -63 -13 -223 -16 -355 -3 -132 -8 -277 -11 -322 l-4
-83 225 0 c124 0 226 1 226 3 1 2 13 172 48 677 11 168 23 332 25 365 10 112
16 210 21 295 3 47 7 101 10 120 2 19 7 107 10 195 3 88 12 243 20 345 8 102
21 300 30 440 8 140 20 309 25 375 18 231 21 353 8 325 l-12 -25 -3 25 c-2 14
1 45 6 70 l9 45 1 -43 c2 -65 16 -43 19 30 1 34 5 79 7 98 3 19 1 49 -4 65 -8
27 -9 23 -11 -30 -1 -33 -6 -71 -10 -85 -14 -42 -11 87 5 295 8 105 19 267 25
360 25 435 30 507 39 610 13 133 29 362 36 505 3 58 10 150 17 205 13 115 16
361 6 420 -4 22 -5 31 -2 20 11 -36 24 -40 24 -7 0 18 -4 32 -10 32 -11 0 -14
53 -4 63 9 8 16 401 8 480 -7 76 -29 93 -39 30 -3 -21 -10 -56 -16 -78 -16
-62 -27 -131 -38 -245 -6 -58 -15 -132 -21 -165 -5 -33 -12 -87 -14 -120 -3
-33 -10 -100 -15 -150 -5 -49 -10 -96 -10 -102 -1 -7 -6 -13 -11 -13 -6 0 -8
19 -6 48 5 40 16 227 41 652 6 101 29 377 45 550 24 247 92 999 105 1160 8 96
32 382 54 635 59 673 101 1203 101 1256 0 19 -34 27 -43 12z m-4427 -1838 c0
-8 -9 -15 -21 -15 -11 0 -18 -3 -16 -7 3 -5 1 -17 -4 -28 -6 -16 -8 -13 -8 16
-1 20 2 39 6 42 12 13 43 7 43 -8z m225 -5 c-3 -5 -10 -10 -16 -10 -5 0 -9 5
-9 10 0 6 7 10 16 10 8 0 12 -4 9 -10z m-208 -76 c-35 -35 -44 -12 -10 25 21
22 29 26 31 15 2 -8 -8 -26 -21 -40z m128 36 c-3 -5 -10 -10 -16 -10 -5 0 -9
5 -9 10 0 6 7 10 16 10 8 0 12 -4 9 -10z m295 -15 c4 3 6 -4 3 -15 -5 -20 -23
-28 -23 -10 0 6 -6 10 -14 10 -9 0 -12 7 -9 20 5 17 7 18 20 5 8 -9 18 -13 23
-10z m-140 -57 c0 -16 -3 -19 -11 -11 -6 6 -8 16 -5 22 11 17 16 13 16 -11z
m-110 -42 c0 -11 -19 -15 -25 -6 -3 5 1 10 9 10 9 0 16 -2 16 -4z m257 -21
c-4 -8 -11 -15 -17 -15 -14 0 -13 27 3 33 16 6 21 1 14 -18z m-97 -59 c0 -11
-19 -15 -25 -6 -3 5 1 10 9 10 9 0 16 -2 16 -4z m-473 -68 c-3 -8 -6 -5 -6 6
-1 11 2 17 5 13 3 -3 4 -12 1 -19z m550 -14 c-3 -3 -12 -4 -19 -1 -8 3 -5 6 6
6 11 1 17 -2 13 -5z m-512 -224 c3 -5 1 -10 -4 -10 -6 0 -11 5 -11 10 0 6 2
10 4 10 3 0 8 -4 11 -10z m-477 -242 c16 -16 15 -28 -2 -28 -17 0 -38 24 -29
33 9 10 17 9 31 -5z m102 -28 c0 -5 -7 -10 -16 -10 -8 0 -12 5 -9 10 3 6 10
10 16 10 5 0 9 -4 9 -10z m1920 -24 c0 -3 -4 -8 -10 -11 -5 -3 -10 -1 -10 4 0
6 5 11 10 11 6 0 10 -2 10 -4z m-1890 -26 c0 -5 -7 -10 -15 -10 -8 0 -15 5
-15 10 0 6 7 10 15 10 8 0 15 -4 15 -10z m125 -20 c3 -5 -3 -10 -15 -10 -12 0
-18 5 -15 10 3 6 10 10 15 10 5 0 12 -4 15 -10z m1762 -182 c-3 -8 -6 -5 -6 6
-1 11 2 17 5 13 3 -3 4 -12 1 -19z m-312 -18 c3 -5 1 -10 -4 -10 -6 0 -11 5
-11 10 0 6 2 10 4 10 3 0 8 -4 11 -10z m3131 -1268 c-12 -12 -18 8 -10 35 l8
28 4 -28 c2 -16 1 -31 -2 -35z m-1660 -7 c6 -15 -11 -45 -25 -45 -4 0 -16 6
-27 14 -19 15 -19 15 1 30 26 20 44 20 51 1z m-2356 -75 c0 -15 -7 -20 -25
-20 -14 0 -25 3 -25 8 0 6 9 12 48 31 1 0 2 -8 2 -19z m3870 -139 c0 -17 -4
-32 -9 -36 -5 -3 -9 10 -8 30 2 42 17 47 17 6z m-23 -228 c-3 -10 -5 -2 -5 17
0 19 2 27 5 18 2 -10 2 -26 0 -35z m-326 -419 c-5 -35 -9 -46 -10 -28 -1 34 9
97 15 91 2 -2 0 -30 -5 -63z m-2203 -712 c3 -32 -11 -62 -29 -62 -5 0 -9 6 -9
14 0 8 -8 13 -17 12 -22 -1 -30 39 -12 60 7 8 24 14 38 12 21 -2 27 -9 29 -36z
m2128 -339 c-4 -9 -9 -59 -12 -110 -2 -51 -9 -115 -14 -144 -5 -28 -8 -55 -5
-59 8 -14 -124 -28 -137 -14 -6 5 18 54 67 139 20 35 59 122 86 194 5 13 12
21 16 18 3 -3 2 -14 -1 -24z m-2128 -546 c4 -19 -6 -21 -27 -8 -16 10 -5 34
12 28 7 -2 13 -11 15 -20z m2559 1 c-3 -8 -6 -5 -6 6 -1 11 2 17 5 13 3 -3 4
-12 1 -19z m3 -135 c0 -39 -15 -61 -23 -34 -6 25 2 61 14 61 5 0 9 -12 9 -27z
m-23 -225 c-2 -13 -4 -5 -4 17 -1 22 1 32 4 23 2 -10 2 -28 0 -40z m-3504
-250 c12 -6 40 -26 61 -45 43 -36 80 -45 69 -16 -5 13 -3 15 13 9 47 -19 162
-30 269 -26 152 6 267 5 297 -3 25 -7 37 -25 82 -127 21 -49 119 -207 136
-220 13 -10 50 -78 50 -92 0 -8 7 -29 15 -46 13 -26 14 -34 3 -52 -11 -18 -10
-23 5 -31 10 -6 17 -22 17 -39 0 -30 13 -40 25 -20 9 15 25 2 25 -21 0 -20
-24 -26 -35 -9 -5 8 -11 8 -20 0 -7 -6 -19 -8 -27 -5 -9 4 -18 -1 -22 -10 -3
-9 -11 -13 -18 -9 -8 5 -9 2 -5 -10 4 -10 7 -21 7 -26 0 -4 9 -6 21 -3 17 5
20 2 17 -18 -3 -21 -9 -24 -56 -27 -34 -2 -62 2 -75 11 -17 11 -28 11 -45 4
-16 -7 -32 -8 -50 -1 -15 6 -40 7 -55 3 -18 -5 -44 -2 -69 7 -22 8 -51 14 -64
14 -17 0 -24 6 -24 20 0 21 -15 27 -25 10 -3 -5 -24 -9 -46 -8 -23 1 -44 -4
-48 -11 -12 -18 -58 -3 -64 21 -5 18 -12 20 -59 16 -53 -5 -147 -41 -160 -62
-4 -6 -8 -7 -8 -3 0 5 -6 5 -12 0 -7 -4 -15 -8 -18 -9 -14 -2 -68 -26 -93 -40
-15 -8 -32 -12 -38 -9 -5 4 -18 1 -27 -7 -42 -33 -63 -40 -79 -26 -43 35 -66
147 -31 145 49 -2 80 6 95 22 10 11 52 36 93 56 41 20 100 55 130 77 30 22 69
49 87 59 17 11 49 50 72 88 33 56 46 69 78 79 44 14 72 36 98 76 16 23 16 29
4 37 -8 5 -20 7 -28 4 -7 -3 -19 -1 -25 3 -17 14 -83 21 -93 11 -6 -6 -26 -5
-54 5 -24 8 -55 15 -69 15 -57 1 -93 10 -111 30 -23 24 -30 26 -47 9 -15 -15
-16 -3 -1 24 9 17 8 19 -9 14 -11 -4 -23 -2 -27 4 -3 5 -14 10 -24 10 -25 0
-68 45 -76 79 -7 35 10 81 30 81 9 0 26 -5 38 -12z m1057 -663 c0 -17 -4 -23
-14 -19 -8 3 -12 13 -9 25 7 27 23 24 23 -6z m-10 -115 c0 -5 -9 -10 -20 -10
-11 0 -20 5 -20 10 0 6 9 10 20 10 11 0 20 -4 20 -10z m37 -126 c-12 -12 -37
5 -30 21 5 15 7 15 21 1 9 -9 13 -18 9 -22z m-82 16 c3 -6 -1 -7 -9 -4 -18 7
-21 14 -7 14 6 0 13 -4 16 -10z m-135 -9 c0 -9 -23 -21 -40 -21 -4 0 -10 7
-14 15 -4 11 2 15 24 15 17 0 30 -4 30 -9z m90 -1 c0 -5 -4 -10 -9 -10 -6 0
-13 5 -16 10 -3 6 1 10 9 10 9 0 16 -4 16 -10z m-560 -30 c-8 -5 -24 -9 -35
-9 -16 1 -16 2 5 9 35 11 48 11 30 0z m50 -5 c0 -8 -4 -15 -9 -15 -13 0 -22
16 -14 24 11 11 23 6 23 -9z m618 -7 c-6 -18 -28 -21 -28 -4 0 9 7 16 16 16 9
0 14 -5 12 -12z m-874 -184 c22 -9 20 -31 -4 -37 -23 -6 -34 7 -26 28 6 17 8
17 30 9z"/>
<path d="M3585 1680 c-3 -5 -1 -10 4 -10 6 0 11 5 11 10 0 6 -2 10 -4 10 -3 0
-8 -4 -11 -10z"/>
<path d="M1996 8586 c-3 -13 -3 -52 0 -85 5 -43 3 -61 -5 -61 -6 0 -11 -7 -11
-15 0 -8 5 -15 10 -15 6 0 10 4 10 9 0 4 11 7 23 6 l24 -3 -14 57 c-8 31 -14
73 -14 94 1 41 -14 50 -23 13z"/>
<path d="M2268 8423 c7 -3 16 -2 19 1 4 3 -2 6 -13 5 -11 0 -14 -3 -6 -6z"/>
<path d="M2517 8397 c-11 -29 -9 -53 4 -40 6 6 9 21 7 34 -3 21 -4 22 -11 6z"/>
<path d="M2469 8396 c-1 -3 -2 -12 -3 -18 0 -7 -16 -14 -34 -15 -25 -1 -32 2
-28 13 3 8 -1 14 -10 14 -8 0 -12 -4 -9 -10 8 -13 -39 -24 -80 -17 -50 8 -93
-11 -101 -46 -3 -15 -17 -40 -30 -54 -13 -14 -22 -29 -19 -33 2 -4 -4 -15 -15
-25 -43 -39 -10 -74 40 -43 15 10 24 9 44 -1 18 -10 47 -12 104 -8 51 4 91 2
110 -5 17 -7 34 -10 36 -7 5 5 18 156 17 194 0 11 -1 28 -2 37 0 16 -17 36
-20 24z"/>
<path d="M1981 8328 c0 -35 -2 -71 -6 -80 -5 -13 -2 -18 9 -18 9 0 16 -4 16
-10 0 -5 5 -10 10 -10 6 0 10 14 10 30 0 17 4 30 8 30 4 0 14 20 21 45 12 42
12 47 -5 60 -11 8 -29 15 -42 15 -22 0 -23 -3 -21 -62z m26 -40 c-3 -8 -6 -5
-6 6 -1 11 2 17 5 13 3 -3 4 -12 1 -19z"/>
<path d="M2553 8251 c-30 -28 -37 -57 -22 -92 9 -24 17 -29 38 -27 24 3 26 7
29 53 2 30 -2 57 -10 68 -13 17 -14 17 -35 -2z"/>
<path d="M1978 8189 c-20 -11 -24 -39 -6 -39 6 0 4 -7 -5 -18 -24 -26 -21 -36
13 -49 28 -11 52 -1 30 12 -5 3 -10 18 -10 33 0 19 3 23 9 13 18 -28 32 -1 16
30 -17 32 -21 33 -47 18z"/>
<path d="M1230 8032 c0 -23 4 -42 9 -42 6 0 7 17 4 38 -8 51 -13 53 -13 4z"/>
<path d="M1810 7864 c0 -14 3 -14 15 -4 8 7 15 14 15 16 0 2 -7 4 -15 4 -8 0
-15 -7 -15 -16z"/>
<path d="M1925 7860 c-3 -5 1 -10 10 -10 9 0 13 5 10 10 -3 6 -8 10 -10 10 -2
0 -7 -4 -10 -10z"/>
<path d="M1950 7680 c0 -5 7 -10 16 -10 8 0 12 5 9 10 -3 6 -10 10 -16 10 -5
0 -9 -4 -9 -10z"/>
<path d="M3930 7659 c0 -5 5 -7 10 -4 6 3 10 8 10 11 0 2 -4 4 -10 4 -5 0 -10
-5 -10 -11z"/>
<path d="M1460 7571 c0 -11 5 -23 10 -26 6 -4 10 5 10 19 0 14 -4 26 -10 26
-5 0 -10 -9 -10 -19z"/>
<path d="M1730 7540 c0 -5 7 -10 15 -10 8 0 15 5 15 10 0 6 -7 10 -15 10 -8 0
-15 -4 -15 -10z"/>
<path d="M1571 7524 c0 -11 3 -14 6 -6 3 7 2 16 -1 19 -3 4 -6 -2 -5 -13z"/>
<path d="M1440 7449 c0 -5 5 -7 10 -4 6 3 10 8 10 11 0 2 -4 4 -10 4 -5 0 -10
-5 -10 -11z"/>
<path d="M1475 7450 c3 -5 13 -10 21 -10 8 0 14 5 14 10 0 6 -9 10 -21 10 -11
0 -17 -4 -14 -10z"/>
<path d="M1700 7430 c0 -5 11 -10 24 -10 14 0 28 5 31 10 4 6 -7 10 -24 10
-17 0 -31 -4 -31 -10z"/>
<path d="M1478 7403 c-40 -4 -49 -21 -23 -43 11 -9 19 -8 39 7 14 10 26 24 26
31 0 6 -1 11 -2 10 -2 -1 -20 -3 -40 -5z"/>
<path d="M1534 7385 c-3 -8 -3 -19 1 -25 3 -6 -3 -10 -14 -10 -14 0 -19 -5
-15 -15 4 -8 10 -12 16 -9 5 3 16 -3 24 -14 9 -14 21 -18 35 -15 21 6 21 6 -5
20 -29 15 -35 33 -11 33 17 0 20 16 5 25 -6 4 -8 11 -5 16 4 5 -1 9 -10 9 -8
0 -18 -7 -21 -15z"/>
<path d="M0 6224 c0 -8 5 -12 10 -9 6 3 10 10 10 16 0 5 -4 9 -10 9 -5 0 -10
-7 -10 -16z"/>
<path d="M731 6198 c-1 -15 4 -30 9 -33 12 -7 12 12 0 40 -8 18 -9 17 -9 -7z"/>
<path d="M0 6160 c0 -5 5 -10 11 -10 5 0 7 5 4 10 -3 6 -8 10 -11 10 -2 0 -4
-4 -4 -10z"/>
<path d="M0 6121 c0 -14 5 -18 20 -14 16 4 18 8 9 19 -16 20 -29 17 -29 -5z"/>
<path d="M2 4368 c3 -1714 3 -1724 25 -1878 21 -151 38 -279 48 -370 3 -25 8
-57 11 -72 5 -25 13 -97 49 -423 8 -77 20 -174 26 -215 6 -41 17 -123 24 -181
8 -59 20 -140 29 -180 8 -41 18 -101 22 -134 3 -33 10 -67 15 -76 5 -9 16 -90
25 -180 9 -90 24 -193 34 -229 28 -96 60 -308 60 -392 l0 -38 401 0 402 0 -6
97 c-3 54 -10 118 -16 143 -9 39 -21 168 -36 393 -2 33 -9 64 -14 71 -6 7 -11
53 -12 104 -1 50 -5 89 -9 87 -3 -2 -7 22 -8 53 -1 31 -4 77 -7 102 -35 301
-54 485 -55 529 0 26 -3 32 -16 27 -13 -5 -15 -1 -10 22 14 73 18 142 7 142
-6 0 -11 -5 -11 -11 0 -5 -4 -8 -9 -4 -6 3 -4 26 6 57 14 47 13 53 -1 64 -17
12 -23 39 -6 29 6 -4 10 6 10 22 0 22 -2 25 -10 13 -8 -12 -10 -11 -10 8 0 12
-4 22 -10 22 -13 0 -13 66 1 92 9 16 7 24 -11 40 -17 16 -21 28 -16 52 20 109
14 162 -20 170 -19 5 -24 13 -23 39 0 25 2 28 8 13 5 -14 10 -16 15 -7 4 6 3
17 -2 24 -6 7 -10 34 -10 61 1 30 -4 52 -10 54 -13 4 -17 42 -4 42 11 0 7 240
-5 275 -7 22 -15 29 -31 28 -25 -3 -24 -12 -27 142 -2 126 -10 182 -27 202
-12 14 -3 47 10 39 5 -3 7 6 4 19 -2 14 -8 25 -12 25 -21 0 -29 56 -33 231 -1
68 -7 111 -15 121 -10 13 -9 17 5 23 15 7 13 9 -11 14 l-28 6 27 28 c26 26 27
27 6 27 -12 0 -21 6 -21 15 0 9 -9 33 -20 55 -11 21 -17 46 -14 54 3 8 -1 35
-9 58 -9 24 -15 54 -14 68 2 23 -1 25 -40 25 l-42 0 2 38 c1 33 4 37 27 36 17
-1 19 -3 8 -6 -22 -5 -23 -17 -3 -33 11 -9 18 -8 36 9 19 18 20 21 6 21 -9 0
-17 6 -17 13 -1 6 -18 41 -40 76 -29 48 -36 68 -29 78 8 9 6 17 -5 29 -10 9
-20 29 -23 45 -3 16 -9 29 -13 29 -13 0 -20 -46 -13 -80 5 -26 3 -32 -8 -28
-8 2 -15 14 -17 26 -2 11 -9 20 -15 18 -7 -1 -9 -1 -4 1 4 3 7 11 7 19 0 8 5
14 11 14 6 0 8 7 5 16 -4 11 1 18 14 21 11 3 20 9 20 13 0 5 10 6 21 3 19 -5
21 -3 16 18 -3 13 -9 45 -12 72 -7 44 -13 51 -42 48 -6 -1 -14 3 -18 8 -3 6
-12 8 -20 5 -17 -7 -37 29 -29 51 4 10 14 15 25 12 10 -3 26 1 36 8 15 12 16
17 6 34 -17 27 -7 50 24 57 l24 6 -23 13 c-23 12 -25 17 -13 46 4 12 -1 18
-19 21 -17 3 -26 1 -26 -7 0 -7 -9 -15 -20 -18 -16 -4 -22 2 -30 31 -13 48
-13 102 0 102 7 0 7 6 1 19 -6 10 -7 21 -4 25 3 3 -1 6 -9 6 -9 0 -19 6 -22
13 -3 6 -5 3 -3 -8 1 -11 -3 -26 -8 -34 -5 -10 -4 -16 3 -19 7 -2 12 -11 12
-20 -1 -15 -2 -15 -13 -1 -7 8 -20 18 -29 22 -22 8 -23 33 -3 41 8 3 15 12 15
20 0 8 5 16 11 18 17 6 26 188 10 188 -8 0 -11 -19 -9 -59 2 -54 -10 -91 -31
-91 -14 0 -35 68 -34 114 1 34 -4 57 -16 72 -14 17 -16 32 -11 61 3 21 2 47
-4 58 -5 11 -12 27 -16 35 -4 8 -16 16 -28 18 -19 3 -21 9 -20 80 1 65 -3 85
-26 131 -20 39 -26 62 -22 84 7 34 -12 98 -32 110 -8 6 -11 18 -8 32 4 15 -2
32 -15 49 -24 31 -39 33 -39 6 0 -22 -18 -27 -25 -7 -2 6 -6 64 -10 127 -5
107 -12 129 -38 130 -4 0 -6 -775 -5 -1722z m258 955 c0 -5 -5 -15 -10 -23 -8
-12 -10 -11 -10 8 0 12 5 22 10 22 6 0 10 -3 10 -7z m220 -649 c0 -22 -29 -43
-57 -44 -13 0 -23 2 -23 5 0 2 10 15 23 29 26 28 57 33 57 10z m10 -54 c0 -5
-7 -7 -15 -4 -8 4 -15 8 -15 10 0 2 7 4 15 4 8 0 15 -4 15 -10z m-70 -24 c0
-2 -7 -6 -15 -10 -8 -3 -15 -1 -15 4 0 6 7 10 15 10 8 0 15 -2 15 -4z m-23
-88 c-3 -8 -6 -5 -6 6 -1 11 2 17 5 13 3 -3 4 -12 1 -19z m113 -68 c0 -11 -7
-20 -15 -20 -15 0 -21 21 -8 33 12 13 23 7 23 -13z m-80 -115 c-7 -8 -17 -15
-22 -15 -6 0 -5 7 2 15 7 8 17 15 22 15 6 0 5 -7 -2 -15z m75 -245 c3 -5 -1
-10 -9 -10 -9 0 -16 5 -16 10 0 6 4 10 9 10 6 0 13 -4 16 -10z m-45 -25 c-7
-9 -15 -13 -17 -11 -7 7 7 26 19 26 6 0 6 -6 -2 -15z m187 -107 c-3 -7 -5 -2
-5 12 0 14 2 19 5 13 2 -7 2 -19 0 -25z m-3 -133 c3 -8 1 -15 -4 -15 -6 0 -10
7 -10 15 0 8 2 15 4 15 2 0 6 -7 10 -15z m56 -91 c0 -2 -7 -4 -15 -4 -8 0 -15
4 -15 10 0 5 7 7 15 4 8 -4 15 -8 15 -10z m32 -183 l-10 -36 -1 46 c-1 26 -3
62 -6 80 -5 30 -4 29 10 -10 13 -33 14 -52 7 -80z m75 -463 c-3 -7 -5 -2 -5
12 0 14 2 19 5 13 2 -7 2 -19 0 -25z m103 -998 c0 -5 -5 -10 -11 -10 -5 0 -7
5 -4 10 3 6 8 10 11 10 2 0 4 -4 4 -10z"/>
<path d="M6452 5530 c0 -14 2 -19 5 -12 2 6 2 18 0 25 -3 6 -5 1 -5 -13z"/>
<path d="M300 5435 c-11 -13 -10 -14 4 -9 9 3 16 10 16 15 0 13 -6 11 -20 -6z"/>
<path d="M241 5404 c0 -11 3 -14 6 -6 3 7 2 16 -1 19 -3 4 -6 -2 -5 -13z"/>
<path d="M380 5400 c0 -5 5 -10 10 -10 6 0 10 5 10 10 0 6 -4 10 -10 10 -5 0
-10 -4 -10 -10z"/>
<path d="M337 5323 c-12 -11 -8 -23 8 -23 8 0 15 7 15 15 0 16 -12 20 -23 8z"/>
<path d="M435 5180 c3 -5 8 -10 11 -10 2 0 4 5 4 10 0 6 -5 10 -11 10 -5 0 -7
-4 -4 -10z"/>
<path d="M400 4960 c0 -6 7 -10 15 -10 8 0 15 2 15 4 0 2 -7 6 -15 10 -8 3
-15 1 -15 -4z"/>
<path d="M520 4831 c0 -5 -3 -16 -6 -25 -4 -11 -1 -16 10 -16 18 0 22 35 6 45
-5 3 -10 2 -10 -4z"/>
<path d="M575 4551 c-3 -5 -1 -12 5 -16 5 -3 10 1 10 9 0 18 -6 21 -15 7z"/>
<path d="M640 4176 c0 -14 4 -26 8 -26 11 0 12 39 1 45 -5 4 -9 -5 -9 -19z"/>
<path d="M6343 4140 c0 -30 2 -43 4 -27 2 15 2 39 0 55 -2 15 -4 2 -4 -28z"/>
<path d="M6322 3840 c0 -14 2 -19 5 -12 2 6 2 18 0 25 -3 6 -5 1 -5 -13z"/>
<path d="M6310 3800 c0 -8 -3 -55 -6 -105 -4 -49 -3 -87 1 -83 12 12 25 170
15 187 -8 14 -9 14 -10 1z"/>
<path d="M6293 3500 c0 -30 2 -43 4 -27 2 15 2 39 0 55 -2 15 -4 2 -4 -28z"/>
<path d="M7140 1846 c0 -9 5 -16 10 -16 6 0 10 4 10 9 0 6 -4 13 -10 16 -5 3
-10 -1 -10 -9z"/>
<path d="M7060 1816 c0 -8 5 -18 10 -21 6 -3 10 1 10 9 0 8 -4 18 -10 21 -5 3
-10 -1 -10 -9z"/>
<path d="M7030 1760 c0 -5 7 -10 16 -10 8 0 12 5 9 10 -3 6 -10 10 -16 10 -5
0 -9 -4 -9 -10z"/>
<path d="M7300 1730 c36 -12 60 -12 60 0 0 6 -19 10 -42 9 -37 -1 -39 -2 -18
-9z"/>
<path d="M7040 1710 c0 -5 5 -10 11 -10 5 0 7 5 4 10 -3 6 -8 10 -11 10 -2 0
-4 -4 -4 -10z"/>
<path d="M7097 1680 c-23 -28 -22 -37 10 -45 33 -8 60 19 42 42 -6 7 -15 11
-19 8 -5 -3 -10 0 -12 5 -2 6 -11 1 -21 -10z"/>
<path d="M6998 1673 c7 -3 16 -2 19 1 4 3 -2 6 -13 5 -11 0 -14 -3 -6 -6z"/>
<path d="M6900 1641 c0 -5 7 -12 16 -15 22 -9 24 -8 24 9 0 8 -9 15 -20 15
-11 0 -20 -4 -20 -9z"/>
<path d="M7315 1628 c-19 -11 -19 -11 0 -19 33 -13 45 -10 45 11 0 22 -15 25
-45 8z"/>
<path d="M7010 1605 c0 -8 -7 -15 -15 -15 -8 0 -15 -4 -15 -10 0 -12 13 -13
24 -3 12 13 36 11 36 -2 0 -8 5 -17 10 -20 12 -7 30 34 23 53 -7 18 -63 16
-63 -3z"/>
<path d="M7228 1593 c-22 -3 -28 -10 -28 -29 0 -31 15 -31 36 0 8 14 23 27 32
29 22 6 -2 6 -40 0z"/>
<path d="M6930 1586 c0 -2 7 -9 15 -16 12 -10 15 -10 15 4 0 9 -7 16 -15 16
-8 0 -15 -2 -15 -4z"/>
<path d="M6780 1550 c0 -5 5 -10 10 -10 6 0 10 5 10 10 0 6 -4 10 -10 10 -5 0
-10 -4 -10 -10z"/>
<path d="M6860 1532 c-25 -8 -29 -25 -14 -61 13 -32 13 -36 -8 -58 -12 -12
-17 -23 -12 -23 5 0 15 -14 21 -31 7 -17 16 -28 22 -25 11 7 25 -29 16 -44 -9
-15 -19 -12 -45 10 -13 11 -26 20 -30 20 -9 0 -30 -63 -30 -94 0 -35 -27 -86
-45 -86 -17 0 -20 -35 -5 -45 6 -4 7 -12 3 -18 -4 -6 -6 -27 -5 -47 1 -28 -1
-31 -8 -15 -5 11 -10 54 -11 95 l-2 75 -10 -77 c-6 -55 -13 -78 -23 -78 -15 0
-18 -22 -14 -133 1 -49 -2 -73 -13 -85 -19 -21 -35 -232 -18 -232 6 0 11 -4
11 -10 0 -5 -6 -10 -14 -10 -19 0 -23 -24 -41 -250 -8 -107 -20 -219 -25 -249
-6 -30 -10 -56 -10 -58 0 -2 182 -3 405 -3 l405 0 0 625 0 625 -26 0 c-16 0
-23 4 -18 11 5 8 -1 10 -20 7 -14 -3 -26 -1 -26 3 0 12 -37 11 -44 0 -4 -5 4
-7 16 -3 20 5 21 3 10 -10 -7 -9 -11 -22 -10 -29 2 -8 -7 -15 -20 -17 -20 -3
-22 0 -20 32 1 26 -3 40 -17 50 -19 14 -19 15 -1 35 12 13 29 20 50 19 17 -1
52 -1 79 0 40 2 47 5 47 22 0 17 -7 20 -40 20 -22 0 -40 -5 -40 -11 0 -5 -4
-7 -10 -4 -18 11 -11 35 11 35 18 0 18 2 -8 24 -24 21 -30 23 -44 10 -20 -18
-29 -18 -29 0 0 12 -20 26 -37 26 -3 0 -3 -15 0 -32 5 -35 -7 -68 -25 -68 -6
0 -8 11 -4 30 3 19 1 30 -5 30 -8 0 -7 5 1 15 8 10 10 28 5 51 -6 36 -7 36
-22 15 -10 -15 -13 -33 -8 -60 5 -28 2 -42 -9 -54 -9 -9 -16 -20 -16 -26 0 -6
-8 -15 -19 -20 -18 -10 -18 -8 -8 31 8 31 7 43 -1 46 -17 5 -15 32 3 32 8 0
15 9 15 20 0 27 -24 16 -40 -18 -7 -15 -16 -47 -19 -72 -4 -31 -11 -45 -21
-45 -11 0 -17 18 -23 73 -5 39 -14 72 -19 72 -6 0 -8 -14 -5 -33 3 -19 1 -40
-4 -48 -5 -8 -9 -11 -10 -6 -6 33 -21 57 -35 57 -11 0 -34 29 -34 44 0 2 9 6
19 8 14 2 16 6 7 14 -6 6 -18 8 -26 6z m370 -137 c0 -8 -7 -15 -15 -15 -8 0
-15 7 -15 15 0 8 7 15 15 15 8 0 15 -7 15 -15z m-96 -48 c7 -6 6 -7 -4 -4 -8
2 -16 12 -17 23 -2 13 -1 15 4 4 3 -8 11 -19 17 -23z m-44 -52 c0 -19 -5 -25
-21 -25 -11 0 -18 3 -16 8 2 4 7 15 10 25 9 26 27 21 27 -8z m-70 -32 c0 -5
-5 -15 -10 -23 -8 -12 -10 -11 -10 8 0 12 5 22 10 22 6 0 10 -3 10 -7z m163
-57 c6 -15 -19 -56 -33 -56 -12 0 -24 46 -15 59 9 16 42 13 48 -3z m-293 -96
c0 -5 -12 -10 -27 -9 l-28 1 25 8 c14 4 26 8 28 9 1 1 2 -3 2 -9z m-110 -25
c0 -8 -4 -15 -10 -15 -5 0 -10 7 -10 15 0 8 5 15 10 15 6 0 10 -7 10 -15z
m180 -5 c0 -5 -4 -10 -10 -10 -5 0 -10 5 -10 10 0 6 5 10 10 10 6 0 10 -4 10
-10z m260 -14 c0 -3 -4 -8 -10 -11 -5 -3 -10 -1 -10 4 0 6 5 11 10 11 6 0 10
-2 10 -4z m-240 -46 c0 -5 -2 -10 -4 -10 -3 0 -8 5 -11 10 -3 6 -1 10 4 10 6
0 11 -4 11 -10z m-251 -92 c-1 -48 -2 -50 -9 -20 -7 30 -3 72 6 72 2 0 4 -24
3 -52z"/>
<path d="M7200 1484 c0 -8 5 -12 10 -9 6 4 8 11 5 16 -9 14 -15 11 -15 -7z"/>
<path d="M7240 1480 c0 -5 5 -10 10 -10 6 0 10 5 10 10 0 6 -4 10 -10 10 -5 0
-10 -4 -10 -10z"/>
<path d="M5332 1355 c0 -16 2 -22 5 -12 2 9 2 23 0 30 -3 6 -5 -1 -5 -18z"/>
<path d="M6201 1334 c0 -11 3 -14 6 -6 3 7 2 16 -1 19 -3 4 -6 -2 -5 -13z"/>
<path d="M6706 1229 c-11 -10 -17 -21 -14 -24 9 -10 60 15 56 27 -7 19 -22 18
-42 -3z"/>
<path d="M5314 1116 c-3 -8 -1 -23 5 -33 9 -15 10 -13 11 15 0 34 -7 42 -16
18z"/>
<path d="M6163 795 c0 -27 2 -38 4 -22 2 15 2 37 0 50 -2 12 -4 0 -4 -28z"/>
<path d="M6152 660 c0 -14 2 -19 5 -12 2 6 2 18 0 25 -3 6 -5 1 -5 -13z"/>
<path d="M6132 385 c0 -16 2 -22 5 -12 2 9 2 23 0 30 -3 6 -5 -1 -5 -18z"/>
<path d="M6351 324 c0 -11 3 -14 6 -6 3 7 2 16 -1 19 -3 4 -6 -2 -5 -13z"/>
<path d="M6110 195 c0 -14 5 -25 10 -25 6 0 10 11 10 25 0 14 -4 25 -10 25 -5
0 -10 -11 -10 -25z"/>
<path d="M6335 149 c-4 -6 -5 -12 -2 -15 2 -3 7 2 10 11 7 17 1 20 -8 4z"/>
<path d="M6100 59 c0 -37 4 -58 10 -54 6 3 10 31 10 61 0 30 -4 54 -10 54 -6
0 -10 -27 -10 -61z"/>
</g>
</svg>
