<?xml version="1.0" standalone="no"?>
<!DOCTYPE svg PUBLIC "-//W3C//DTD SVG 20010904//EN"
 "http://www.w3.org/TR/2001/REC-SVG-20010904/DTD/svg10.dtd">
<svg version="1.0" xmlns="http://www.w3.org/2000/svg"
 width="720.000000pt" height="875.000000pt" viewBox="0 0 720.000000 875.000000"
 preserveAspectRatio="xMidYMid meet">

<g transform="translate(0.000000,875.000000) scale(0.100000,-0.100000)"
fill="#000000" stroke="none">
<path d="M7159 5478 c-1 -1800 -3 -3280 -4 -3288 -1 -8 -3 -140 -4 -293 0
-183 -4 -276 -11 -272 -5 3 -10 -3 -10 -15 0 -12 5 -18 10 -15 6 4 10 -7 10
-25 0 -25 -4 -31 -15 -26 -9 3 -15 0 -15 -9 0 -8 7 -15 15 -15 12 0 15 -13 13
-62 -1 -42 -3 -51 -5 -25 -2 20 -9 37 -15 37 -6 0 -8 9 -5 20 3 11 2 20 -3 20
-4 0 -10 -11 -12 -25 -3 -14 -1 -25 3 -25 5 0 9 -4 9 -10 0 -5 -13 -10 -30
-10 -34 0 -37 6 -14 31 14 16 14 18 -6 29 -18 10 -24 8 -36 -7 -13 -17 -15
-17 -28 0 -16 21 -36 22 -36 2 0 -11 -12 -15 -50 -15 -27 0 -50 -4 -50 -10 0
-5 25 -10 55 -10 52 0 72 -11 40 -24 -8 -3 -12 -12 -9 -21 4 -10 0 -15 -10
-15 -9 0 -16 7 -16 15 0 8 -5 15 -10 15 -6 0 -9 -6 -8 -12 2 -7 -7 -14 -19
-16 -16 -2 -23 2 -23 12 0 18 -34 56 -50 56 -14 0 -13 -33 2 -48 9 -9 8 -12
-5 -12 -9 0 -21 9 -27 20 -6 11 -17 20 -25 20 -8 0 -15 5 -15 10 0 6 -8 10
-17 10 -11 0 -14 -3 -7 -8 6 -4 17 -21 24 -39 8 -17 18 -29 22 -27 9 6 88 -17
88 -25 0 -3 -12 -11 -26 -18 -22 -10 -29 -9 -42 4 -9 9 -31 22 -50 30 -18 7
-30 18 -27 23 3 5 0 12 -6 16 -8 4 -7 9 2 15 11 7 11 9 -1 9 -8 0 -21 -9 -28
-21 -10 -16 -19 -19 -43 -14 -22 5 -36 2 -49 -10 -16 -15 -22 -16 -35 -5 -13
10 -19 10 -33 -4 -10 -9 -24 -16 -30 -16 -7 0 -12 -5 -12 -11 0 -19 -28 -39
-54 -39 -14 0 -26 5 -26 10 0 9 8 12 26 9 14 -2 22 26 13 43 -11 21 10 34 37
24 9 -3 24 4 38 19 13 14 30 25 37 25 8 0 3 6 -11 13 -14 8 -24 19 -22 25 1 7
-5 12 -14 12 -11 0 -14 -6 -9 -20 5 -14 2 -20 -9 -20 -9 0 -16 -8 -17 -17 0
-14 -2 -15 -6 -3 -3 8 -11 18 -17 22 -16 11 -56 10 -56 -2 0 -5 7 -7 15 -4 12
5 15 -2 15 -35 0 -32 -3 -39 -15 -35 -8 4 -15 12 -15 19 0 9 -19 12 -74 10
-75 -3 -100 -10 -91 -24 2 -5 -4 -16 -15 -26 -13 -12 -17 -21 -10 -25 15 -10
1 -40 -24 -50 -17 -7 -18 -9 -3 -9 13 -1 17 -9 16 -33 0 -18 -3 -27 -6 -20 -2
6 -16 12 -29 12 -15 0 -23 -4 -19 -11 9 -14 -23 -79 -43 -87 -13 -5 -10 -8 13
-13 30 -7 30 -7 3 -8 -15 0 -30 4 -33 9 -8 13 -45 13 -65 0 -12 -8 -13 -12 -2
-19 11 -6 10 -10 -3 -15 -15 -5 -15 -9 -4 -23 12 -14 12 -16 0 -8 -11 6 -13 3
-7 -18 3 -15 2 -27 -6 -29 -7 -3 -11 -29 -10 -76 1 -45 -2 -72 -9 -72 -7 0
-10 -30 -9 -82 1 -46 -3 -177 -9 -293 -6 -116 -12 -259 -14 -320 l-2 -110
-200 0 -200 0 4 719 c3 603 1 720 -10 727 -8 5 -9 9 -3 9 13 0 19 436 6 444
-9 5 -8 42 4 94 4 23 3 32 -6 32 -10 0 -10 3 0 15 7 8 8 20 3 27 -12 19 -11
138 2 138 5 0 3 5 -5 10 -13 8 -15 172 -19 1352 -4 1571 -4 1393 1 1443 3 22
1 48 -4 57 -4 10 -10 88 -12 175 -5 204 -3 188 -21 173 -8 -7 -15 -27 -15 -45
0 -17 -3 -35 -7 -39 -5 -4 -8 -56 -8 -114 0 -63 -4 -107 -10 -107 -15 0 -18
487 -6 875 6 184 13 499 16 700 4 201 11 568 16 815 6 248 12 567 15 710 2
143 9 297 16 343 7 50 8 86 2 91 -5 5 -52 5 -109 0 -55 -5 -181 -14 -280 -19
-272 -15 -346 -20 -390 -25 -41 -5 -239 -15 -655 -34 -129 -6 -271 -13 -315
-15 -44 -3 -172 -8 -285 -11 -113 -3 -239 -8 -280 -11 -71 -4 -302 -13 -930
-34 -351 -12 -558 -24 -566 -33 -4 -4 -3 -7 2 -7 5 -1 95 -5 199 -10 105 -6
305 -15 445 -20 140 -6 291 -12 335 -15 44 -2 175 -6 290 -10 116 -3 248 -8
295 -10 129 -6 366 -15 544 -21 121 -3 162 -8 173 -19 18 -18 17 -18 54 1 23
11 42 13 72 8 23 -4 34 -9 25 -12 -10 -2 -18 -8 -18 -13 0 -12 46 -23 65 -15
9 3 35 -3 58 -14 23 -11 69 -22 103 -24 33 -3 67 -8 75 -10 8 -3 68 -10 135
-16 136 -11 191 -29 198 -63 5 -21 11 -82 22 -192 2 -27 7 -75 11 -105 3 -30
7 -100 8 -154 1 -68 5 -101 14 -104 9 -3 9 -7 0 -18 -9 -11 -9 -23 0 -52 7
-22 10 -64 7 -104 -2 -38 -1 -68 3 -68 4 0 5 -14 3 -31 -3 -20 0 -34 9 -40 11
-6 11 -14 2 -41 -14 -37 -14 -118 0 -118 4 0 7 -28 6 -63 -1 -34 3 -72 10 -84
6 -12 7 -24 2 -27 -9 -6 -7 -118 3 -156 4 -14 2 -38 -4 -54 -5 -15 -7 -33 -3
-39 11 -19 13 -66 3 -72 -15 -9 -12 -35 4 -35 11 0 13 -20 13 -90 0 -68 -4
-90 -14 -90 -7 0 -13 -7 -13 -15 0 -8 9 -15 20 -15 15 0 20 -7 20 -25 0 -26
-15 -34 -23 -12 -3 6 -6 3 -6 -7 -1 -11 7 -28 16 -38 16 -18 16 -19 -4 -24
-15 -4 -19 -11 -15 -27 3 -12 11 -26 19 -30 17 -10 17 -44 -1 -54 -23 -13 -24
-47 -1 -60 16 -10 17 -12 4 -13 -21 0 -34 -31 -18 -41 7 -4 10 -20 7 -38 -2
-17 0 -33 6 -35 7 -3 7 -7 -1 -13 -16 -11 -24 -199 -11 -226 6 -12 4 -24 -7
-39 -19 -29 -19 -38 2 -38 14 0 14 -2 -2 -20 -16 -17 -16 -24 -6 -44 10 -17
10 -29 2 -43 -5 -11 -8 -37 -4 -57 4 -24 2 -36 -6 -36 -7 0 -9 -5 -5 -12 11
-18 13 -51 3 -63 -4 -6 -4 -17 1 -25 11 -17 13 -73 4 -83 -7 -6 -9 -24 -18
-129 -2 -31 -7 -62 -11 -68 -3 -5 -1 -10 6 -10 9 0 9 -3 0 -14 -8 -9 -9 -16
-2 -21 6 -3 8 -28 6 -58 -10 -120 -13 -267 -5 -262 5 3 5 -7 1 -23 -5 -16 -9
-51 -10 -78 -1 -27 -2 -67 -3 -90 -1 -22 1 -45 5 -51 4 -5 3 -13 -1 -17 -4 -4
-8 -112 -10 -239 -4 -291 -4 -265 -3 -377 1 -113 -12 -401 -19 -425 -6 -22 -7
-31 -8 -57 -3 -49 -42 -36 -119 39 -38 38 -80 78 -94 89 -33 29 -143 154 -149
170 -3 7 -23 26 -45 42 -64 47 -93 78 -109 116 -15 36 -41 63 -264 276 -100
95 -127 127 -156 186 -20 40 -36 78 -36 85 0 28 -40 79 -94 119 -44 32 -56 46
-56 68 0 31 -119 244 -177 314 -44 55 -92 141 -139 251 -19 43 -41 85 -49 93
-8 8 -31 43 -51 77 -39 68 -94 140 -133 174 -13 11 -99 58 -190 103 -91 44
-182 89 -201 98 -26 13 -44 34 -68 82 -18 35 -36 67 -40 70 -4 3 -13 13 -21
23 -12 15 -9 21 25 52 37 34 37 35 13 36 -53 3 -71 7 -109 24 -22 10 -40 22
-40 26 0 5 -21 14 -46 20 -25 7 -50 19 -56 29 -9 13 -21 16 -60 12 -68 -6
-135 27 -143 72 -8 48 8 89 41 106 16 8 31 16 34 18 2 2 -1 12 -8 23 -10 16
-10 20 3 25 8 4 15 15 15 26 0 42 53 65 63 27 3 -12 10 -18 16 -14 16 9 13 32
-4 39 -13 5 -14 10 -4 27 6 12 9 32 6 46 -3 15 1 27 9 30 8 3 14 19 14 38 0
18 6 37 12 42 7 5 56 10 108 11 52 1 89 -1 82 -4 -18 -8 -42 -58 -42 -88 0
-35 46 -69 85 -63 19 3 34 -1 41 -11 13 -18 65 -9 88 16 14 16 13 21 -14 52
-17 19 -30 39 -30 43 0 5 -5 5 -10 2 -6 -4 -8 -10 -5 -14 2 -5 -7 -8 -20 -8
-14 0 -28 3 -31 8 -3 5 0 9 5 9 6 0 11 15 11 34 0 29 -3 33 -19 29 -10 -3 -22
1 -26 9 -5 7 -5 10 0 6 9 -9 58 50 75 92 7 16 16 30 21 30 11 0 36 -57 43
-101 4 -20 14 -51 24 -70 16 -32 20 -34 71 -34 51 0 57 3 77 32 22 33 54 153
54 202 0 15 -9 37 -21 50 -25 27 -119 70 -177 82 -43 8 -112 37 -122 49 -3 4
-16 10 -30 13 -14 3 -61 15 -105 27 -94 24 -243 28 -377 10 -64 -9 -92 -9
-107 0 -30 16 -26 25 23 59 35 24 45 39 55 78 31 122 37 137 63 158 31 26 144
55 210 55 80 -1 214 -38 269 -74 21 -14 45 -26 53 -26 8 0 30 -15 50 -33 l35
-34 10 46 c22 109 -24 237 -122 333 -83 82 -131 112 -216 138 -67 20 -89 21
-220 16 -128 -5 -151 -9 -197 -31 -28 -14 -59 -25 -69 -25 -53 0 -220 -76
-274 -125 -73 -67 -86 -97 -107 -260 -3 -22 -9 -49 -14 -60 -4 -11 -15 -38
-24 -60 -8 -22 -15 -32 -15 -23 -1 9 -6 20 -12 24 -7 4 -9 -2 -7 -16 2 -13 -2
-25 -7 -27 -20 -7 -53 145 -74 337 -30 285 -80 843 -84 932 -2 43 -8 83 -14
89 -6 6 -23 9 -39 7 -23 -2 -28 -8 -26 -23 2 -11 7 -67 12 -125 5 -58 14 -159
20 -225 5 -66 14 -169 20 -230 5 -60 16 -200 24 -310 9 -110 19 -236 22 -280
4 -44 3 -77 -1 -73 -4 4 -13 0 -20 -8 -9 -13 -16 -14 -32 -5 -27 14 -38 0 -48
-59 -7 -39 -9 -42 -16 -22 -5 12 -15 22 -24 22 -9 0 -15 6 -13 14 2 8 -1 15
-7 15 -6 1 -10 -31 -10 -74 0 -53 -4 -78 -14 -84 -8 -5 -11 -16 -6 -30 4 -12
2 -27 -3 -34 -10 -14 11 -328 62 -898 4 -43 2 -60 -9 -69 -26 -21 -45 -4 -46
42 l-2 43 -7 -35 c-5 -27 -8 -31 -14 -18 -4 9 -6 21 -3 25 3 4 0 19 -6 33 -6
14 -11 36 -13 50 -7 71 -18 126 -25 136 -5 6 -8 34 -6 62 1 28 -1 48 -5 46 -9
-6 -23 44 -15 52 3 3 -1 21 -9 40 -8 19 -14 37 -13 40 0 3 -1 8 -4 10 -12 12
-16 -48 -5 -66 10 -16 10 -24 0 -40 -6 -11 -12 -27 -12 -35 0 -8 -4 -15 -9
-15 -6 0 -12 21 -14 48 -7 72 1 -279 9 -395 4 -56 4 -110 0 -120 -7 -17 -8
-17 -20 0 -13 17 -14 16 -19 -2 -5 -21 -101 -74 -155 -86 -18 -3 -45 -13 -60
-20 -15 -8 -38 -18 -52 -23 -14 -6 -69 -49 -123 -96 -53 -47 -104 -86 -113
-86 -8 0 -12 5 -9 10 3 6 -1 10 -9 10 -9 0 -16 6 -16 14 0 8 -7 22 -16 30 -8
9 -10 16 -4 16 11 0 9 65 -3 77 -4 3 -7 15 -7 25 0 10 -7 30 -16 43 -9 13 -13
33 -10 43 4 11 0 24 -9 32 -11 9 -12 17 -4 31 6 12 6 25 1 36 -5 9 -7 24 -4
35 2 10 -2 26 -10 36 -21 24 -28 70 -12 82 10 9 10 16 -2 38 -8 15 -14 44 -14
64 0 20 -4 39 -9 42 -8 6 -18 52 -25 121 -2 17 -6 38 -11 48 -4 9 -5 24 -1 32
3 8 1 15 -5 15 -7 0 -9 10 -5 23 9 36 -4 67 -31 73 -15 4 -20 9 -14 13 6 4 12
29 13 55 2 38 -2 51 -17 63 -19 15 -19 15 8 9 30 -7 35 5 11 28 -20 21 -41 20
-47 -1 -4 -17 -5 -17 -6 0 0 9 -5 17 -11 17 -13 0 -13 27 1 35 6 4 16 0 23
-10 11 -15 13 -15 30 4 19 21 19 21 -7 21 -33 0 -44 17 -16 25 19 6 20 9 6 16
-9 5 -14 16 -11 24 7 16 -40 39 -62 31 -7 -3 -18 2 -24 10 -7 8 -20 14 -29 15
-12 0 -11 2 4 8 11 5 36 6 55 4 44 -5 71 10 52 29 -11 11 -16 10 -27 -6 -13
-17 -15 -17 -21 -3 -7 20 3 37 22 37 8 0 14 6 14 14 0 19 -32 30 -41 14 -6
-10 -14 -7 -31 10 l-23 24 25 -4 c19 -2 25 2 25 17 0 13 8 21 23 23 36 5 25
22 -15 23 l-38 2 39 6 38 6 -21 19 c-26 23 -27 33 -3 39 14 4 14 6 -5 12 -13
4 -23 11 -23 16 0 5 7 6 15 3 8 -4 15 -1 15 5 0 6 -12 11 -27 12 -16 0 -37 4
-48 9 -17 6 -13 9 20 15 65 11 73 18 25 24 -47 6 -62 23 -22 26 13 1 30 9 39
18 14 14 14 17 0 31 -8 9 -28 16 -42 16 -23 0 -26 3 -22 21 7 26 -13 49 -42
49 -20 0 -21 -6 -21 -99 0 -70 4 -101 13 -104 9 -4 9 -8 1 -14 -8 -5 -12 -58
-13 -150 -1 -140 -1 -142 21 -146 l23 -4 -22 -2 c-23 -1 -23 -2 -23 -174 0
-121 4 -177 12 -185 9 -9 9 -12 1 -12 -15 0 -18 -507 -4 -524 5 -6 12 -42 14
-81 3 -38 10 -110 16 -160 26 -234 31 -302 31 -465 0 -96 1 -197 2 -225 2 -43
-3 -58 -35 -107 l-38 -58 5 -482 c2 -266 8 -517 14 -558 6 -41 16 -106 22
-145 5 -38 15 -110 20 -160 15 -135 53 -415 69 -515 27 -164 44 -236 57 -246
16 -13 19 -41 4 -46 -7 -2 -7 -70 0 -208 10 -201 24 -320 55 -470 12 -56 15
-132 14 -302 -1 -233 -9 -295 -41 -337 -10 -13 -19 -40 -20 -60 -1 -22 -4 -9
-9 34 -5 39 -13 104 -19 145 -6 41 -14 109 -19 150 -5 41 -11 89 -14 105 -3
17 -8 55 -11 85 -10 103 -26 235 -37 310 -6 41 -14 116 -19 165 -5 50 -14 128
-20 175 -11 88 -26 214 -39 335 -8 69 -8 68 -10 -42 0 -61 3 -114 8 -117 7 -5
13 -50 26 -226 3 -36 9 -101 15 -145 5 -44 12 -109 16 -145 3 -36 10 -101 15
-145 5 -44 13 -129 19 -190 5 -60 14 -144 20 -185 5 -41 14 -120 20 -175 6
-55 15 -136 20 -180 6 -44 17 -143 26 -220 52 -472 77 -686 114 -951 11 -78
20 -147 20 -153 0 -8 -49 -11 -160 -11 -153 0 -160 -1 -160 -20 0 -20 7 -20
3600 -20 l3600 0 0 4360 c0 4353 0 4360 -20 4360 -20 0 -20 -7 -21 -3272z
m-7091 1905 c-10 -2 -26 -2 -35 0 -10 3 -2 5 17 5 19 0 27 -2 18 -5z m17 -163
c0 -7 -5 -15 -10 -17 -6 -2 -11 6 -11 17 0 11 5 19 11 17 5 -2 10 -10 10 -17z
m1625 -152 c0 -5 4 -7 9 -3 15 8 25 -15 12 -28 -6 -6 -11 -19 -11 -28 0 -21
53 -66 58 -50 5 16 44 13 67 -4 15 -12 36 -14 97 -9 78 7 177 -7 206 -29 15
-11 16 -51 2 -78 -8 -13 -7 -19 0 -19 6 0 10 -7 8 -16 -2 -10 5 -18 16 -20 11
-1 24 -11 29 -21 6 -9 21 -28 34 -41 13 -13 21 -27 18 -30 -3 -4 -10 -1 -14 7
-5 7 -12 13 -17 13 -5 0 -8 4 -7 8 1 4 -7 16 -18 26 -11 10 -20 14 -19 9 5
-22 -1 -35 -15 -35 -8 0 -29 -9 -47 -20 -18 -11 -30 -20 -25 -20 4 0 1 -13 -8
-30 -9 -16 -22 -30 -30 -30 -24 0 -17 -29 10 -42 26 -12 31 -23 15 -33 -5 -3
-10 -11 -10 -16 0 -6 4 -8 9 -4 5 3 13 0 16 -6 4 -5 -2 -13 -12 -15 -15 -4
-19 -12 -15 -30 3 -17 0 -24 -12 -24 -10 0 -16 -9 -16 -25 0 -14 4 -25 9 -25
4 0 11 -17 14 -37 5 -27 2 -42 -10 -55 -10 -11 -13 -24 -8 -35 16 -35 16 -77
0 -86 -8 -4 -15 -17 -15 -27 0 -24 -3 -24 -40 -5 -31 16 -58 11 -77 -14 -9
-13 -8 -17 4 -22 19 -6 24 -43 12 -76 -11 -29 -53 -22 -94 16 -46 42 -94 73
-108 68 -6 -2 -16 4 -22 14 -5 9 -38 53 -72 96 -34 44 -68 95 -76 115 -23 54
-30 129 -18 194 6 32 12 136 14 229 3 123 7 177 18 195 18 31 60 70 77 70 6 0
12 6 12 13 0 7 5 18 11 24 13 13 39 6 39 -9z m705 -61 c12 -16 71 -38 79 -29
4 3 3 -9 0 -26 -5 -24 -2 -33 10 -38 9 -3 16 -17 16 -30 0 -21 -2 -23 -19 -13
-26 17 -51 4 -51 -25 0 -26 -19 -75 -29 -77 -3 0 -14 -2 -23 -4 -11 -2 -27 13
-47 43 -26 41 -30 57 -32 125 -1 58 2 81 12 88 18 12 71 3 84 -14z m-2355 -92
c0 -8 -4 -15 -9 -15 -5 0 -11 7 -15 15 -3 9 0 15 9 15 8 0 15 -7 15 -15z m78
-30 c0 -13 -4 -22 -9 -19 -5 3 -9 16 -9 30 0 14 4 23 9 20 5 -3 9 -17 9 -31z
m2388 -92 c-8 -9 -46 18 -40 28 4 6 13 4 25 -7 11 -9 17 -19 15 -21z m-2371
-33 c3 -6 -4 -10 -17 -10 -18 0 -20 2 -8 10 19 12 18 12 25 0z m55 -236 c0 -2
-7 -4 -15 -4 -8 0 -15 4 -15 10 0 5 7 7 15 4 8 -4 15 -8 15 -10z m5 -24 c3 -5
-1 -10 -10 -10 -9 0 -13 5 -10 10 3 6 8 10 10 10 2 0 7 -4 10 -10z m807 -132
c4 -29 -2 -68 -11 -68 -4 0 -7 20 -7 45 -1 47 12 62 18 23z m948 -384 c0 -2
-7 -4 -15 -4 -8 0 -15 4 -15 10 0 5 7 7 15 4 8 -4 15 -8 15 -10z m282 -202 c9
-9 6 -12 -14 -12 -14 0 -28 6 -31 13 -6 17 28 16 45 -1z m47 -23 c-22 -14 -33
-10 -19 6 7 8 17 12 22 9 6 -4 5 -10 -3 -15z m1104 -2273 c29 4 38 3 28 -4
-11 -8 -4 -13 30 -22 24 -7 46 -15 49 -19 9 -14 68 -30 89 -24 15 4 21 1 21
-11 0 -13 8 -15 45 -10 38 4 45 2 45 -12 0 -14 7 -15 40 -10 32 5 40 3 40 -9
0 -9 8 -18 18 -21 9 -3 26 -10 37 -14 11 -5 48 -14 82 -21 34 -7 60 -16 57
-20 -6 -11 27 -20 48 -13 11 3 24 0 31 -8 7 -8 31 -21 55 -28 23 -7 42 -16 42
-21 0 -4 12 -10 28 -14 15 -3 34 -12 42 -20 8 -7 25 -16 38 -19 12 -4 22 -11
22 -16 0 -4 25 -22 55 -39 30 -17 55 -36 55 -41 0 -6 6 -10 13 -10 6 0 23 -9
37 -20 14 -11 39 -20 56 -20 32 0 42 -13 72 -92 7 -16 20 -28 34 -30 13 -2 24
-11 26 -23 7 -36 23 -47 62 -40 30 5 39 3 46 -12 12 -26 13 -923 1 -923 -6 0
-6 -5 1 -12 5 -7 6 -22 3 -32 -4 -11 -4 -38 -1 -62 4 -24 5 -166 3 -316 -5
-424 -7 -498 -15 -511 -6 -9 -8 -8 -8 2 0 11 -3 12 -11 4 -7 -7 -9 -22 -4 -40
5 -15 7 -33 6 -40 -1 -6 3 -14 9 -18 5 -3 10 -16 10 -28 0 -17 -2 -19 -9 -8
-15 24 -24 -30 -11 -64 8 -21 8 -31 1 -33 -6 -2 -9 -8 -5 -13 3 -5 0 -9 -5 -9
-6 0 -11 -7 -11 -15 0 -8 -6 -15 -12 -15 -7 0 -5 -5 5 -11 9 -5 17 -18 17 -29
0 -10 6 -20 12 -22 10 -4 8 -9 -3 -21 -9 -9 -19 -14 -21 -12 -3 3 -4 -11 -3
-30 0 -19 6 -40 12 -46 13 -13 7 -39 -14 -56 -13 -10 -12 -14 6 -32 12 -12 21
-25 21 -31 0 -5 4 -10 9 -10 17 0 22 -34 7 -46 -9 -6 -19 -25 -22 -43 -4 -17
-10 -31 -15 -31 -18 0 -13 -37 8 -57 25 -24 22 -48 -7 -56 -10 -2 -23 -14 -29
-26 -10 -18 -9 -21 9 -21 27 0 26 -26 -2 -34 -13 -3 -303 -6 -645 -6 l-623 0
-1 22 -2 23 -4 -23 -4 -23 -187 2 c-103 1 -216 4 -250 6 l-64 6 6 36 c9 59 24
166 51 361 14 102 29 210 35 240 5 30 12 71 15 90 4 19 10 44 15 55 5 11 18
49 29 85 18 59 27 109 61 345 23 152 33 202 49 240 24 60 90 156 134 194 21
19 43 43 49 55 19 36 37 130 38 199 0 51 4 69 15 73 8 4 15 15 15 25 0 16 -17
24 -36 17 -3 -2 -10 5 -15 15 -6 11 -22 17 -43 17 -19 0 -39 7 -46 15 -7 8
-16 13 -20 10 -12 -7 -61 15 -84 38 -10 10 -24 16 -32 13 -18 -7 -18 9 1 28
20 19 19 32 0 16 -13 -11 -20 -9 -40 10 -20 19 -27 21 -40 10 -13 -11 -18 -10
-28 4 -12 16 -14 16 -46 0 -18 -9 -36 -13 -40 -8 -5 8 -15 9 -46 5 -5 -1 -3
-6 5 -11 11 -7 7 -10 -17 -10 -22 0 -36 6 -43 20 -6 11 -18 20 -26 20 -12 0
-14 9 -8 48 3 26 12 53 18 61 7 9 11 60 11 132 0 110 1 118 20 123 38 11 130
6 190 -10 123 -32 249 -57 290 -58 l30 -1 -2 60 c-1 33 -7 92 -12 130 -14 95
-39 400 -46 562 -5 127 -5 132 17 152 19 18 23 19 31 6 6 -11 18 -14 50 -9z
m1273 -209 c9 3 14 -1 14 -11 0 -14 -4 -15 -20 -6 -11 6 -20 16 -19 23 0 9 2
9 5 0 3 -7 12 -9 20 -6z m-1781 -326 c-9 -16 -25 -3 -18 15 4 10 9 12 15 6 6
-6 7 -15 3 -21z m210 -787 c0 -21 -31 -32 -47 -16 -6 6 -3 15 8 26 20 21 39
16 39 -10z m80 -4 c3 -5 -1 -10 -10 -10 -9 0 -13 5 -10 10 3 6 8 10 10 10 2 0
7 -4 10 -10z m3842 -716 c-3 -3 -12 -4 -19 -1 -8 3 -5 6 6 6 11 1 17 -2 13 -5z
m13 -33 c0 -16 40 -24 55 -11 19 15 55 -8 54 -35 -1 -17 -2 -17 -6 -2 -5 21
-4 20 -37 3 l-27 -14 31 -24 c28 -22 31 -29 27 -69 l-4 -44 -1 47 c-2 43 -4
48 -24 45 -14 -1 -22 3 -20 11 1 6 -7 12 -19 12 -11 0 -17 -4 -14 -10 3 -5 -1
-10 -9 -10 -23 0 -28 17 -8 26 9 4 22 6 27 5 6 -2 6 1 2 5 -4 4 -35 9 -69 11
-34 2 -59 1 -56 -2 4 -4 8 -5 11 -3 12 9 37 -28 36 -56 -1 -17 -3 -23 -6 -13
-2 9 -11 17 -18 17 -9 0 -12 6 -8 16 5 14 2 16 -19 11 -30 -8 -42 1 -26 20 9
11 9 16 -1 22 -17 11 31 23 54 15 10 -4 22 1 31 15 15 21 44 29 44 12z m-662
-17 c-10 -9 -128 -12 -134 -3 -3 5 27 9 67 9 40 0 70 -3 67 -6z m340 -21 c2
-17 10 -23 27 -23 36 0 39 -17 5 -22 -20 -3 -30 0 -30 9 0 7 -9 13 -20 13 -11
0 -20 -4 -20 -10 0 -5 -9 -10 -20 -10 -11 0 -20 5 -20 10 0 6 5 10 10 10 21 0
9 20 -15 26 -40 10 -17 25 33 22 40 -3 47 -6 50 -25z m-130 -5 c-2 -18 -10
-22 -45 -24 -24 -1 -43 2 -43 7 0 5 10 9 23 9 12 0 31 7 41 15 26 20 28 19 24
-7z m-231 -13 c-2 -5 -18 -9 -36 -7 -18 2 -38 -2 -46 -8 -8 -6 -23 -9 -34 -5
-16 5 -18 9 -9 19 15 15 130 16 125 1z m-6086 -34 c9 -9 56 -297 74 -456 9
-77 21 -167 26 -200 5 -33 14 -101 18 -152 5 -50 11 -96 15 -101 3 -4 10 -42
15 -83 6 -41 17 -110 26 -154 20 -111 22 -107 -27 -103 -28 2 -42 7 -41 16 2
6 -1 12 -7 12 -5 0 -7 6 -4 14 3 8 0 40 -7 73 -7 32 -14 83 -16 113 -2 30 -5
78 -7 105 -3 28 -5 65 -5 84 -1 25 -5 32 -16 27 -12 -4 -14 6 -8 70 4 56 3 78
-7 84 -8 5 -12 31 -11 76 0 40 -3 63 -8 56 -5 -8 -11 21 -14 72 -4 47 -11 96
-17 110 -6 16 -6 27 1 31 5 4 7 10 4 15 -3 5 -6 25 -7 44 -1 19 -5 33 -10 30
-4 -3 -8 0 -8 5 0 6 5 11 10 11 6 0 10 8 10 18 0 14 -2 15 -10 2 -7 -10 -10 8
-11 60 -1 53 -3 68 -9 50 -6 -19 -8 -11 -9 33 l-1 57 28 -6 c15 -4 30 -9 33
-13z m5977 -21 c-9 -13 -16 -16 -23 -9 -7 7 -5 13 5 19 24 15 31 11 18 -10z
m49 -6 c-3 -3 -12 -4 -19 -1 -8 3 -5 6 6 6 11 1 17 -2 13 -5z m623 -4 c0 -5
-4 -10 -10 -10 -5 0 -10 5 -10 10 0 6 5 10 10 10 6 0 10 -4 10 -10z m-521 -32
c0 -27 -2 -29 -8 -13 -5 11 -6 26 -4 33 8 21 13 13 12 -20z m361 17 c0 -8 -4
-15 -10 -15 -5 0 -10 7 -10 15 0 8 5 15 10 15 6 0 10 -7 10 -15z m91 -5 c10 0
19 -5 19 -11 0 -6 -7 -8 -16 -5 -9 3 -20 6 -25 6 -5 0 -9 8 -8 18 0 10 3 12 6
5 2 -7 13 -13 24 -13z m-207 4 c9 -3 13 -10 10 -15 -3 -5 -10 -6 -16 -3 -6 4
-8 2 -4 -4 9 -16 -11 -25 -31 -13 -22 12 -20 23 4 32 10 4 19 8 20 8 1 1 8 -2
17 -5z m-384 -10 c0 -3 -7 -12 -15 -20 -12 -13 -15 -13 -15 -1 0 7 3 17 7 20
8 8 23 9 23 1z m100 -4 c0 -5 -9 -10 -21 -10 -11 0 -17 5 -14 10 3 6 13 10 21
10 8 0 14 -4 14 -10z m533 -24 c-3 -16 -10 -23 -19 -19 -17 6 -17 10 -1 28 18
21 25 18 20 -9z m79 7 c-6 -2 -9 -10 -6 -15 4 -7 2 -8 -5 -4 -13 9 -5 26 12
25 9 0 8 -2 -1 -6z m87 -35 c1 -5 -3 -8 -9 -8 -5 0 -10 12 -9 28 0 24 1 25 9
7 5 -11 9 -23 9 -27z m53 33 c-8 -4 -13 -11 -12 -15 1 -3 -2 -20 -5 -37 -6
-26 -11 -30 -29 -25 -12 3 -32 -1 -44 -10 -31 -21 -42 -10 -41 39 1 27 3 33 6
16 4 -23 8 -26 45 -25 38 1 42 4 50 34 6 20 15 32 26 32 13 0 14 -2 4 -9z
m-402 -21 c0 -5 -5 -10 -11 -10 -5 0 -7 5 -4 10 3 6 8 10 11 10 2 0 4 -4 4
-10z m-395 -10 c-3 -5 -17 -10 -30 -10 -13 0 -25 -6 -28 -12 -2 -7 -8 -10 -12
-6 -14 13 17 38 47 38 17 0 27 -4 23 -10z m65 -4 c0 -11 -19 -15 -25 -6 -3 5
1 10 9 10 9 0 16 -2 16 -4z m687 -90 c-2 -6 -12 -10 -22 -9 -10 1 -25 -5 -33
-13 -21 -21 -27 -10 -7 14 18 21 69 28 62 8z m-332 -56 c3 -5 1 -10 -4 -10 -6
0 -11 5 -11 10 0 6 2 10 4 10 3 0 8 -4 11 -10z m-738 -142 c-3 -7 -5 -2 -5 12
0 14 2 19 5 13 2 -7 2 -19 0 -25z"/>
<path d="M1615 6990 c-4 -6 -10 -23 -15 -38 -4 -15 -12 -36 -16 -47 -7 -19 -7
-19 9 -3 9 9 17 21 17 26 0 5 11 21 25 36 14 15 25 29 25 32 0 9 -39 4 -45 -6z"/>
<path d="M1680 6950 c0 -6 7 -24 15 -40 13 -25 13 -30 1 -30 -7 0 -24 -8 -36
-18 l-23 -19 23 -16 c14 -9 20 -22 17 -31 -4 -10 5 -23 26 -38 18 -12 38 -29
45 -38 11 -13 12 -11 7 15 -3 17 -10 50 -14 75 -19 106 -33 150 -47 150 -8 0
-14 -5 -14 -10z"/>
<path d="M1852 6243 c-18 -7 -4 -23 19 -23 12 0 19 5 17 12 -5 14 -18 18 -36
11z"/>
<path d="M1855 6200 c3 -5 20 -10 36 -10 18 0 28 4 24 10 -3 6 -20 10 -36 10
-18 0 -28 -4 -24 -10z"/>
<path d="M3268 2475 c-3 -3 -36 -6 -73 -8 -38 -1 -70 -7 -72 -12 -2 -6 18 -42
44 -80 35 -50 62 -76 98 -97 28 -15 53 -27 57 -28 3 0 9 18 13 40 4 22 10 38
15 35 14 -9 29 20 32 65 l3 45 -54 23 c-62 25 -56 24 -63 17z"/>
<path d="M3432 2219 c-33 -13 -20 -26 22 -21 38 4 47 16 20 26 -9 3 -16 6 -17
5 -1 0 -12 -4 -25 -10z"/>
<path d="M4503 473 c-18 -2 -33 -8 -33 -14 0 -5 -11 -9 -25 -9 -14 0 -25 -4
-25 -10 0 -12 141 -11 157 2 7 5 17 7 24 3 7 -5 10 -1 7 11 -3 20 -39 26 -105
17z"/>
<path d="M4388 423 c7 -3 16 -2 19 1 4 3 -2 6 -13 5 -11 0 -14 -3 -6 -6z"/>
<path d="M4280 405 c-11 -13 -7 -15 26 -15 35 0 37 1 18 15 -24 18 -29 18 -44
0z"/>
<path d="M3404 260 c0 -58 1 -81 3 -52 2 28 2 76 0 105 -2 28 -3 5 -3 -53z"/>
<path d="M6648 1383 c6 -2 18 -2 25 0 6 3 1 5 -13 5 -14 0 -19 -2 -12 -5z"/>
<path d="M0 8640 c0 -11 7 -20 15 -20 13 0 14 4 5 20 -6 11 -13 20 -15 20 -3
0 -5 -9 -5 -20z"/>
<path d="M5 8500 c3 -5 8 -10 11 -10 2 0 4 5 4 10 0 6 -5 10 -11 10 -5 0 -7
-4 -4 -10z"/>
<path d="M13 8472 c-16 -10 -17 -320 -1 -340 8 -9 8 -16 0 -24 -8 -8 -12 -48
-12 -105 0 -90 1 -93 23 -94 l22 0 -23 -9 c-22 -9 -22 -12 -22 -183 l0 -175
44 5 c38 5 44 3 49 -17 3 -12 9 -20 14 -17 14 9 9 70 -5 75 -7 2 -11 -2 -10
-10 2 -8 -8 -14 -24 -16 -32 -4 -38 14 -8 23 23 7 27 25 6 25 -7 0 -20 7 -27
17 -13 15 -10 16 29 10 45 -8 48 -6 31 24 -8 16 -17 19 -39 14 -16 -3 -31 -2
-35 4 -4 7 7 11 29 11 19 0 38 5 41 10 3 6 1 10 -4 10 -6 0 -11 7 -11 16 0 8
5 12 10 9 6 -4 10 13 10 43 0 35 -4 52 -15 56 -11 4 -13 16 -8 51 5 39 3 48
-14 60 -23 16 -21 60 4 69 11 4 13 1 8 -14 -4 -11 -2 -20 4 -20 16 0 14 22 -5
59 -14 29 -17 30 -28 15 -9 -11 -15 -13 -20 -6 -3 6 3 17 15 25 22 16 24 62 2
62 -23 0 -27 16 -5 22 26 6 29 23 5 24 -11 0 -13 3 -6 6 17 6 16 32 -1 39 -8
3 -17 13 -20 21 -6 14 -4 14 10 2 16 -13 17 -10 11 33 -4 32 -3 48 6 52 9 3 8
7 -2 14 -17 12 -21 100 -6 106 7 2 7 7 0 14 -6 6 -16 8 -22 4z m44 -818 c-3
-3 -12 -4 -19 -1 -8 3 -5 6 6 6 11 1 17 -2 13 -5z"/>
<path d="M1118 7135 c-7 -32 -5 -39 9 -34 5 2 6 18 3 34 l-6 30 -6 -30z"/>
<path d="M157 7123 c-12 -12 -7 -22 8 -17 8 4 15 10 15 15 0 11 -14 12 -23 2z"/>
<path d="M2569 6429 c-30 -10 -68 -18 -85 -19 -38 0 -73 -24 -58 -39 5 -6 36
-20 68 -32 46 -16 61 -17 72 -8 11 9 18 9 26 1 7 -7 22 -12 34 -12 12 0 24 -6
27 -12 3 -10 7 -10 20 1 20 16 22 79 4 101 -29 35 -51 39 -108 19z"/>
<path d="M5490 6380 c0 -5 5 -10 10 -10 6 0 10 5 10 10 0 6 -4 10 -10 10 -5 0
-10 -4 -10 -10z"/>
<path d="M2620 6292 c0 -7 -12 -12 -26 -12 -19 0 -25 -4 -20 -15 3 -9 0 -15
-9 -15 -17 0 -19 -9 -5 -30 12 -19 46 0 43 25 -1 13 5 16 23 12 28 -5 29 0 9
27 -8 11 -15 14 -15 8z"/>
<path d="M5480 6209 c0 -5 5 -7 10 -4 6 3 10 8 10 11 0 2 -4 4 -10 4 -5 0 -10
-5 -10 -11z"/>
<path d="M5487 6066 c-4 -10 -1 -13 9 -9 15 6 19 23 5 23 -5 0 -11 -7 -14 -14z"/>
<path d="M5483 5915 c0 -22 2 -30 4 -17 2 12 2 30 0 40 -3 9 -5 -1 -4 -23z"/>
<path d="M5482 5735 c0 -16 2 -22 5 -12 2 9 2 23 0 30 -3 6 -5 -1 -5 -18z"/>
<path d="M6604 1764 c-21 -31 -5 -56 21 -34 12 10 13 16 3 27 -9 11 -9 16 3
24 9 6 10 9 2 9 -7 0 -20 -11 -29 -26z"/>
<path d="M6615 1644 c9 -9 19 -13 23 -10 3 4 0 11 -8 16 -24 15 -33 11 -15 -6z"/>
<path d="M6998 1653 c7 -3 16 -2 19 1 4 3 -2 6 -13 5 -11 0 -14 -3 -6 -6z"/>
<path d="M7057 1623 c-3 -4 0 -15 6 -24 11 -13 14 -13 30 3 9 10 13 18 8 18
-5 0 -16 3 -24 6 -8 3 -17 2 -20 -3z"/>
<path d="M6240 1576 c1 -27 2 -29 11 -12 9 15 13 16 20 5 4 -8 14 -14 20 -14
7 0 14 -6 17 -12 2 -8 -5 -13 -17 -13 -12 0 -21 -4 -21 -10 0 -5 16 -10 36
-10 26 0 33 3 27 13 -4 6 -8 21 -8 32 0 12 -7 20 -17 20 -9 0 -20 4 -24 8 -4
4 7 7 24 7 53 0 36 15 -18 16 -50 1 -50 1 -50 -30z"/>
<path d="M6946 1591 c-3 -5 1 -11 9 -15 8 -3 17 -1 20 4 3 5 13 6 22 3 11 -4
14 -3 9 5 -8 14 -52 16 -60 3z"/>
<path d="M6835 1580 c-3 -5 1 -10 10 -10 9 0 13 5 10 10 -3 6 -8 10 -10 10 -2
0 -7 -4 -10 -10z"/>
<path d="M6735 1571 c-3 -5 -1 -12 5 -16 5 -3 10 1 10 9 0 18 -6 21 -15 7z"/>
<path d="M6884 1564 c3 -9 6 -17 6 -20 0 -2 7 -1 15 2 12 5 13 10 4 20 -16 19
-33 18 -25 -2z"/>
<path d="M7091 1573 c-1 -6 -4 -18 -7 -27 -4 -11 -1 -16 10 -16 18 0 19 6 6
35 -5 11 -9 15 -9 8z"/>
<path d="M6484 1556 c11 -9 27 -16 35 -15 14 0 14 1 1 6 -8 3 -24 10 -35 15
-20 9 -20 9 -1 -6z"/>
<path d="M6386 1549 c3 -5 -5 -14 -18 -19 -23 -11 -23 -11 0 -6 12 2 22 0 22
-5 0 -13 39 -31 52 -23 7 5 4 10 -10 15 -13 5 -19 14 -16 22 3 9 -3 16 -15 20
-12 3 -18 1 -15 -4z"/>
<path d="M6652 1551 c-11 -7 -10 -10 3 -15 19 -7 35 0 35 15 0 11 -20 12 -38
0z"/>
<path d="M6235 1520 c-3 -5 -1 -10 4 -10 6 0 11 5 11 10 0 6 -2 10 -4 10 -3 0
-8 -4 -11 -10z"/>
<path d="M6797 1513 c6 -15 73 -18 73 -4 0 5 -17 11 -39 13 -28 2 -37 0 -34
-9z"/>
<path d="M6740 1504 c0 -16 18 -18 38 -5 10 6 7 10 -12 13 -18 4 -26 1 -26 -8z"/>
<path d="M6600 1481 c0 -15 27 -20 40 -8 10 9 11 9 6 0 -5 -9 1 -13 18 -13 18
0 24 4 20 15 -7 16 -84 22 -84 6z"/>
<path d="M6080 1460 c0 -5 5 -10 11 -10 5 0 7 5 4 10 -3 6 -8 10 -11 10 -2 0
-4 -4 -4 -10z"/>
<path d="M6080 1313 c0 -10 4 -24 9 -32 9 -14 1 -27 -52 -91 -6 -8 -10 -17 -7
-20 10 -9 39 -10 45 0 3 6 1 10 -4 10 -16 0 -13 26 3 39 11 10 15 9 19 -4 4
-11 5 -11 3 2 -1 10 11 32 26 48 29 32 35 45 18 45 -5 0 -10 -4 -10 -10 0 -5
-4 -10 -10 -10 -5 0 -10 9 -10 20 0 11 -7 20 -15 20 -8 0 -15 -8 -15 -17z"/>
<path d="M6040 1289 c0 -11 5 -17 10 -14 6 3 10 13 10 21 0 8 -4 14 -10 14 -5
0 -10 -9 -10 -21z"/>
<path d="M5980 1261 c0 -11 26 -22 34 -14 12 12 5 23 -14 23 -11 0 -20 -4 -20
-9z"/>
</g>
</svg>
